<svg width="21" height="11" viewBox="0 0 21 11" fill="none" xmlns="http://www.w3.org/2000/svg">
<path d="M0.121653 5.815L4.7882 10.0685C4.91786 10.1738 5.0596 10.1941 5.21356 10.1293C5.36735 10.0644 5.44457 9.94697 5.44457 9.77675V7.05451L20.6111 7.05451C20.7246 7.05451 20.8178 7.01812 20.8906 6.9452C20.9634 6.87233 21 6.77911 21 6.66572V4.33245C21 4.21909 20.9636 4.12587 20.8907 4.05309C20.8177 3.98022 20.7245 3.94382 20.6112 3.94382L5.44448 3.94382L5.44448 1.22163C5.44448 1.05937 5.36714 0.941973 5.21344 0.869271C5.05935 0.804188 4.9176 0.828792 4.78795 0.941973L0.121397 5.24437C0.0403938 5.32533 0 5.42238 0 5.5359C0 5.64095 0.0406494 5.734 0.121653 5.815Z" fill="#C4C4C4"/>
</svg>
