<svg width="21" height="11" viewBox="0 0 21 11" fill="none" xmlns="http://www.w3.org/2000/svg">
<path d="M20.8783 5.185L16.2118 0.931466C16.0821 0.826159 15.9404 0.805897 15.7864 0.870725C15.6326 0.935637 15.5554 1.05303 15.5554 1.22325V3.94549H0.388879C0.2754 3.94549 0.182181 3.98188 0.109351 4.0548C0.0365639 4.12767 0 4.22089 0 4.33428V6.66755C0 6.78091 0.0363936 6.87413 0.109309 6.94691C0.182309 7.01978 0.275527 7.05618 0.388837 7.05618H15.5555V9.77837C15.5555 9.94063 15.6329 10.058 15.7866 10.1307C15.9407 10.1958 16.0824 10.1712 16.2121 10.058L20.8786 5.75563C20.9596 5.67467 21 5.57762 21 5.4641C21 5.35905 20.9594 5.266 20.8783 5.185Z" fill="#008FBC"/>
</svg>
